Coordinates
version=1
nRows=21
nColumns=34
inDegrees=no

Units are S.I. units (second, meters, Newtons, ...)
If the header above contains a line with 'inDegrees', this indicates whether rotational values are in degrees (yes) or radians (no).

endheader
time	pelvis_tilt	pelvis_list	pelvis_rotation	pelvis_tx	pelvis_ty	pelvis_tz	hip_flexion_r	hip_adduction_r	hip_rotation_r	knee_angle_r	ankle_angle_r	subtalar_angle_r	mtp_angle_r	hip_flexion_l	hip_adduction_l	hip_rotation_l	knee_angle_l	ankle_angle_l	subtalar_angle_l	mtp_angle_l	lumbar_extension	lumbar_bending	lumbar_rotation	arm_flex_r	arm_add_r	arm_rot_r	elbow_flex_r	pro_sup_r	arm_flex_l	arm_add_l	arm_rot_l	elbow_flex_l	pro_sup_l
1.09	0.00569251	0.0487862	0.0836316	-0.40153	1.09942	-0.566259	0.42466	-0.171038	-0.370434	0.400293	-0.469831	0.0871003	-0.0275	0.394645	-0.129126	-0.453498	0.354755	-0.455249	0.214165	-0.0237652	-0.387437	-0.0974331	-0.00494753	-1.0719	-0.216027	-1.07925	2.12505	1.61842	-0.972161	-0.187199	-0.946177	2.36756	1.62756
1.1	0.0116909	0.0444118	0.0863883	-0.393543	1.07201	-0.566751	0.478983	-0.176703	-0.342182	0.547842	-0.313596	0.0369641	-0.0275098	0.459063	-0.137949	-0.402696	0.511841	-0.299858	0.135209	-0.0237656	-0.406346	-0.0902615	-0.00142201	-1.03562	-0.166451	-1.0311	2.08032	1.64581	-0.958187	-0.123109	-0.92302	2.31717	1.66211
1.11	0.0159888	0.0403747	0.0873506	-0.386093	1.04434	-0.566939	0.53345	-0.181131	-0.315752	0.687398	-0.173635	-0.00642052	-0.0275196	0.520944	-0.145474	-0.356551	0.658783	-0.157657	0.0671532	-0.0237661	-0.424569	-0.0842906	0.00204231	-0.990515	-0.128169	-0.981382	2.02153	1.66925	-0.934751	-0.0696593	-0.897486	2.25917	1.68706
1.12	0.0185866	0.03667	0.0865167	-0.379204	1.01702	-0.566886	0.587971	-0.184292	-0.291117	0.818747	-0.0501489	-0.0430863	-0.0275294	0.580203	-0.151729	-0.315048	0.795368	-0.0289351	0.00995985	-0.0237665	-0.442099	-0.0795294	0.00547347	-0.936705	-0.101069	-0.930046	1.94892	1.68866	-0.90196	-0.0268527	-0.869544	2.19366	1.70223
1.13	0.0197265	0.0333482	0.0838944	-0.372509	0.990156	-0.566678	0.642355	-0.186084	-0.268208	0.941408	0.056606	-0.0731701	-0.0275392	0.636714	-0.156825	-0.278105	0.921164	0.0858153	-0.0365703	-0.0237669	-0.458849	-0.0759596	0.00896079	-0.874597	-0.0847666	-0.876969	1.86332	1.70392	-0.86017	0.00533987	-0.839121	2.12108	1.70729
1.14	0.0194482	0.0303721	0.0795225	-0.366127	0.964087	-0.566382	0.696185	-0.186351	-0.246901	1.05483	0.146689	-0.0969918	-0.027549	0.690257	-0.160962	-0.245503	1.03582	0.18622	-0.0729611	-0.0237673	-0.474833	-0.0735171	0.0126743	-0.805074	-0.0784681	-0.822014	1.76652	1.71488	-0.810123	0.0270679	-0.806121	2.04231	1.70198
1.15	0.0176457	0.0276612	0.0735311	-0.360365	0.939093	-0.566006	0.748891	-0.184908	-0.227092	1.15864	0.220724	-0.115127	-0.0275588	0.740672	-0.164423	-0.216849	1.13938	0.272225	-0.100216	-0.0237678	-0.490171	-0.0720275	0.0168519	-0.729604	-0.0809005	-0.765171	1.66149	1.72154	-0.753021	0.0387252	-0.770504	1.95888	1.68655
1.16	0.0144314	0.0249863	0.0661719	-0.355373	0.91528	-0.565542	0.799961	-0.181677	-0.208765	1.25275	0.27992	-0.12843	-0.0275687	0.788094	-0.167465	-0.191605	1.23237	0.344061	-0.119862	-0.0237682	-0.50494	-0.071239	0.0217172	-0.650202	-0.090335	-0.706728	1.55238	1.72414	-0.690509	0.0410681	-0.73241	1.87293	1.66211
1.17	0.00993072	0.0221521	0.0578639	-0.351106	0.892713	-0.565003	0.849023	-0.176743	-0.192048	1.33744	0.325977	-0.137946	-0.0275785	0.832996	-0.170278	-0.169133	1.31584	0.402146	-0.13381	-0.0237686	-0.519198	-0.0707937	0.0274147	-0.569253	-0.104726	-0.647422	1.44431	1.72335	-0.624569	0.0352861	-0.692273	1.78719	1.63096
1.18	0.00443138	0.0190339	0.0491545	-0.347394	0.871529	-0.564444	0.89592	-0.170413	-0.177176	1.41324	0.360992	-0.144718	-0.0275883	0.876164	-0.172927	-0.148795	1.39104	0.447082	-0.144052	-0.023769	-0.53288	-0.070303	0.0339376	-0.489212	-0.121929	-0.588471	1.34279	1.72017	-0.557333	0.0229787	-0.650876	1.70478	1.59651
1.19	-0.00204653	0.0155574	0.0406432	-0.344111	0.851893	-0.563918	0.940541	-0.163206	-0.164388	1.48081	0.387402	-0.149549	-0.0275981	0.918381	-0.175331	-0.130034	1.45928	0.479772	-0.15232	-0.0237694	-0.545962	-0.069429	0.0411042	-0.412305	-0.139947	-0.531464	1.25311	1.71578	-0.490886	0.00602893	-0.609306	1.62894	1.56279
1.2	-0.00948925	0.0117489	0.0328931	-0.341226	0.833869	-0.563451	0.982764	-0.155772	-0.153841	1.54083	0.407905	-0.152817	-0.0276079	0.960232	-0.177298	-0.112434	1.52161	0.501579	-0.159848	-0.0237698	-0.558394	-0.0679299	0.0485827	-0.340284	-0.157145	-0.478144	1.17958	1.71115	-0.427082	-0.0135994	-0.568808	1.56266	1.5337
1.21	-0.0178303	0.00771738	0.0263509	-0.338719	0.81737	-0.563071	1.02236	-0.148795	-0.145561	1.59386	0.425298	-0.154447	-0.0276177	1.00191	-0.178579	-0.0957483	1.57875	0.514415	-0.167285	-0.0237702	-0.570118	-0.0656839	0.0559524	-0.274286	-0.172376	-0.430142	1.12504	1.70685	-0.36741	-0.0340908	-0.530584	1.50831	1.51225
1.22	-0.0269137	0.00360669	0.0212887	-0.336543	0.802231	-0.562798	1.05898	-0.142875	-0.139437	1.64043	0.442215	-0.15407	-0.0276275	1.04311	-0.178943	-0.0799099	1.63105	0.520703	-0.174769	-0.0237706	-0.581087	-0.0626935	0.062783	-0.214789	-0.185022	-0.388737	1.09048	1.70297	-0.312915	-0.0539727	-0.4956	1.46732	1.50005
1.23	-0.0365651	-0.000467147	0.0177757	-0.334625	0.788301	-0.56264	1.09218	-0.13844	-0.13525	1.68098	0.460794	-0.151311	-0.0276374	1.08309	-0.178234	-0.0650103	1.67855	0.523194	-0.182101	-0.023771	-0.5913	-0.0590763	0.0687134	-0.161646	-0.19494	-0.354694	1.07503	1.69924	-0.264154	-0.0722307	-0.464439	1.43998	1.4971
1.24	-0.0465241	-0.00432286	0.0157146	-0.332891	0.775479	-0.562591	1.12157	-0.135647	-0.132719	1.716	0.482364	-0.146051	-0.0276472	1.1208	-0.17644	-0.0512435	1.72114	0.524674	-0.188934	-0.0237714	-0.600757	-0.0549925	0.0735331	-0.114176	-0.202369	-0.328188	1.07615	1.69526	-0.221199	-0.0883278	-0.437247	1.42538	1.50203
1.25	-0.0564396	-0.00783016	0.0148506	-0.331267	0.763713	-0.562652	1.14694	-0.134393	-0.131522	1.74601	0.507248	-0.138568	-0.027657	1.15515	-0.173689	-0.0388449	1.75864	0.527635	-0.194927	-0.0237718	-0.609432	-0.0506431	0.0771988	-0.0713088	-0.20779	-0.308816	1.09002	1.6907	-0.18366	-0.102142	-0.413772	1.42154	1.51245
1.26	-0.0659735	-0.0109308	0.0148264	-0.32968	0.753	-0.562812	1.16833	-0.134354	-0.131312	1.7716	0.53474	-0.129517	-0.0276668	1.18518	-0.17023	-0.0280059	1.79093	0.533956	-0.199834	-0.0237722	-0.617292	-0.0462277	0.0798368	-0.0317551	-0.211803	-0.295665	1.11208	1.6855	-0.150743	-0.113848	-0.39347	1.42568	1.52558
1.27	-0.0748448	-0.0136545	0.0152435	-0.328083	0.743359	-0.563064	1.18608	-0.135043	-0.131735	1.79341	0.563291	-0.119793	-0.0276766	1.21024	-0.166402	-0.0187967	1.81808	0.544672	-0.203549	-0.0237726	-0.624311	-0.0419105	0.081717	0.00583772	-0.21504	-0.287401	1.1376	1.67975	-0.121342	-0.123768	-0.375635	1.43456	1.53893
1.28	-0.0828518	-0.0161169	0.015722	-0.326449	0.734824	-0.563392	1.2007	-0.135894	-0.132449	1.81209	0.590864	-0.110351	-0.0276864	1.23014	-0.162578	-0.0111231	1.84031	0.559882	-0.206106	-0.0237729	-0.630492	-0.0377951	0.083203	0.042764	-0.218101	-0.282384	1.1621	1.67364	-0.0941514	-0.132251	-0.359501	1.4449	1.55063
1.29	-0.0898745	-0.0184979	0.0159518	-0.324759	0.727435	-0.563754	1.21282	-0.13635	-0.133152	1.82818	0.615387	-0.102042	-0.0276963	1.24506	-0.159098	-0.0047381	1.85803	0.578793	-0.207675	-0.0237733	-0.635894	-0.0339207	0.0846755	0.0801847	-0.221511	-0.278786	1.18172	1.66724	-0.0677981	-0.139578	-0.344303	1.45369	1.55953
